<?xml version="1.0" encoding="UTF-8" standalone="no"?>
<!-- Created with Inkscape (http://www.inkscape.org/) -->

<svg
   xmlns:dc="http://purl.org/dc/elements/1.1/"
   xmlns:cc="http://creativecommons.org/ns#"
   xmlns:rdf="http://www.w3.org/1999/02/22-rdf-syntax-ns#"
   xmlns:svg="http://www.w3.org/2000/svg"
   xmlns="http://www.w3.org/2000/svg"
   xmlns:sodipodi="http://sodipodi.sourceforge.net/DTD/sodipodi-0.dtd"
   xmlns:inkscape="http://www.inkscape.org/namespaces/inkscape"
   width="90mm"
   height="50mm"
   id="svg3060"
   version="1.1"
   inkscape:version="0.48.3.1 r9886"
   sodipodi:docname="cartao.svg">
  <defs
     id="defs3" />
  <sodipodi:namedview
     id="base"
     pagecolor="#ffffff"
     bordercolor="#666666"
     borderopacity="1.0"
     inkscape:pageopacity="0.0"
     inkscape:pageshadow="2"
     inkscape:zoom="1.3459297"
     inkscape:cx="-27.319216"
     inkscape:cy="87.188909"
     inkscape:document-units="mm"
     inkscape:current-layer="layer1"
     showgrid="false"
     inkscape:window-width="1366"
     inkscape:window-height="721"
     inkscape:window-x="-2"
     inkscape:window-y="-3"
     inkscape:window-maximized="1">
    <inkscape:grid
       type="xygrid"
       id="grid3170" />
  </sodipodi:namedview>
  <metadata
     id="metadata3064">
    <rdf:RDF>
      <cc:Work
         rdf:about="">
        <dc:format>image/svg+xml</dc:format>
        <dc:type
           rdf:resource="http://purl.org/dc/dcmitype/StillImage" />
        <dc:title></dc:title>
      </cc:Work>
    </rdf:RDF>
  </metadata>
  <g
     inkscape:label="Layer 1"
     inkscape:groupmode="layer"
     id="layer1">
    <g
       id="g3144"
       transform="matrix(0.70243334,0,0,1.4914087,26.010865,-68.766594)"
       inkscape:export-filename="/home/wouerner/public_html/multiplicacao/art/cartao_v.png"
       inkscape:export-xdpi="300"
       inkscape:export-ydpi="300">
      <rect
         inkscape:export-ydpi="90"
         inkscape:export-xdpi="90"
         inkscape:export-filename="/home/wouerner/public_html/multiplicacao/art/logo.png"
         ry="3.5189869"
         rx="3.5756865"
         y="46.247463"
         x="-38.21521"
         height="120.65103"
         width="460.75299"
         id="rect3027"
         style="color:#000000;fill:#808080;fill-opacity:1;fill-rule:nonzero;stroke:#ffffff;stroke-width:2.18934608;stroke-linecap:round;stroke-linejoin:miter;stroke-miterlimit:4;stroke-opacity:1;stroke-dasharray:none;stroke-dashoffset:0;marker:none;visibility:visible;display:inline;overflow:visible;enable-background:accumulate" />
      <path
         inkscape:export-ydpi="90"
         inkscape:export-xdpi="90"
         inkscape:export-filename="/home/wouerner/public_html/multiplicacao/art/logo.png"
         id="rect3849"
         d="m -34.636332,46.253726 c -1.98093,0 -3.575686,1.559121 -3.575686,3.508642 l 0,87.805452 c 57.587982,16.66497 153.760908,29.5427 241.090658,-28.89602 85.7796,-57.401386 169.52318,-63.096768 219.61419,-59.490481 -0.27955,-1.671468 -1.75101,-2.927593 -3.53099,-2.927593 l -453.598172,0 z"
         style="opacity:0.23694781;color:#000000;fill:#ffffff;fill-opacity:1;fill-rule:nonzero;stroke:#ffffff;stroke-width:2.18934608;stroke-linecap:round;stroke-linejoin:miter;stroke-miterlimit:4;stroke-opacity:1;stroke-dasharray:none;stroke-dashoffset:0;marker:none;visibility:visible;display:inline;overflow:visible;enable-background:accumulate"
         inkscape:connector-curvature="0" />
    </g>
    <g
       transform="matrix(0.3498355,0,0,0.37600039,69.995679,-149.85247)"
       id="g3838"
       inkscape:export-filename="/home/wouerner/public_html/multiplicacao/art/cartao_v.png"
       inkscape:export-xdpi="300"
       inkscape:export-ydpi="300">
      <g
         style="stroke:#000000;stroke-width:8.06938362;stroke-miterlimit:4;stroke-opacity:1;stroke-dasharray:none"
         id="g3826"
         transform="matrix(1.3631772,0,0,1.3631772,-106.93853,-391.37577)">
        <path
           d="m 465.47062,724.8087 c -3e-5,3.95217 -1.57419,6.39715 -4.72249,7.33495 -1.33974,0.40191 -4.55506,0.60287 -9.64595,0.60287 -5.29189,0 -7.93782,-2.64594 -7.93782,-7.93782 l 0,-106.60783 c 0,-5.22477 2.64593,-7.83721 7.93782,-7.83733 5.09089,1.2e-4 8.30621,0.20108 9.64595,0.60287 3.1483,0.93792 4.72246,3.34941 4.72249,7.23446 l 0,106.60783"
           style="font-size:205.78024292px;font-style:normal;font-variant:normal;font-weight:normal;font-stretch:normal;line-height:125%;letter-spacing:0px;word-spacing:0px;fill:#b0dfde;fill-opacity:1;stroke:#000000;stroke-width:8.06938362;stroke-miterlimit:4;stroke-opacity:1;stroke-dasharray:none;font-family:Neuropol;-inkscape-font-specification:Neuropol"
           id="path3828"
           inkscape:connector-curvature="0" />
        <path
           sodipodi:nodetypes="ccssscscsssscccccccccccccccc"
           d="m 562.95581,640.30617 c -9e-5,11.11972 -0.73508,19.02403 -2.20499,23.71296 -3.60505,11.52161 -12.05748,17.28238 -25.35732,17.28233 l -26.51231,0 c -10.77994,5e-5 -16.1699,3.85172 -16.16989,11.55504 l 0,21.50243 65.88703,0 c 2.8349,10e-6 4.25239,3.04786 4.25248,9.14355 -9e-5,6.16269 -1.41758,9.24404 -4.25248,9.24404 l -73.34198,0 c -2.72998,0 -4.09497,-2.64594 -4.09497,-7.93782 l 0,-31.75124 c 0,-13.73203 4.98746,-22.90907 14.9624,-27.53115 1.92497,-0.87075 3.95495,-1.50711 6.08995,-1.90909 2.16996,-0.46883 4.47994,-0.70328 6.92996,-0.70335 l 25.82981,0 c 2.90492,7e-5 6.1599,-0.66979 9.76493,-2.00958 4.3749,-2.0095 6.56238,-5.35878 6.56246,-10.04786 l 0,-10.44978 c -8e-5,-5.6267 -3.90254,-9.27742 -11.70742,-10.95217 -2.83504,-0.60277 -46.85607,-0.9042 -54.20596,-0.90431 -1.71503,1.1e-4 -2.88752,-1.00468 -3.51747,-3.01436 -0.38505,-1.3396 -0.57755,-3.78458 -0.5775,-7.33494 -5e-5,-5.22477 1.36494,-7.83721 4.09497,-7.83733 5.91491,1.2e-4 49.55093,0.13409 53.05097,0.40192 3.49991,0.20107 5.98489,0.536 7.45494,1.00478 4.5849,1.47381 8.39987,4.42118 11.44493,8.84212 3.74488,5.42595 5.61737,11.99055 5.61746,19.69381"
           style="font-size:205.78024292px;font-style:normal;font-variant:normal;font-weight:normal;font-stretch:normal;line-height:125%;letter-spacing:0px;word-spacing:0px;fill:#b0dfde;fill-opacity:1;stroke:#000000;stroke-width:8.06938362;stroke-miterlimit:4;stroke-opacity:1;stroke-dasharray:none;font-family:Neuropol;-inkscape-font-specification:Neuropol"
           id="path3830"
           inkscape:connector-curvature="0" />
      </g>
      <g
         transform="matrix(1.3631772,0,0,1.3631772,-106.93853,-391.37577)"
         id="g3832"
         style="stroke:#ffffff;stroke-width:13.20444584;stroke-miterlimit:4;stroke-opacity:1;stroke-dasharray:none">
        <path
           inkscape:connector-curvature="0"
           id="path3834"
           style="font-size:205.78024292px;font-style:normal;font-variant:normal;font-weight:normal;font-stretch:normal;line-height:125%;letter-spacing:0px;word-spacing:0px;fill:#b0dfde;fill-opacity:1;stroke:#ffffff;stroke-width:13.20444584;stroke-miterlimit:4;stroke-opacity:1;stroke-dasharray:none;font-family:Neuropol;-inkscape-font-specification:Neuropol"
           d="m 465.47062,724.8087 c -3e-5,3.95217 -1.57419,6.39715 -4.72249,7.33495 -1.33974,0.40191 -4.55506,0.60287 -9.64595,0.60287 -5.29189,0 -7.93782,-2.64594 -7.93782,-7.93782 l 0,-106.60783 c 0,-5.22477 2.64593,-7.83721 7.93782,-7.83733 5.09089,1.2e-4 8.30621,0.20108 9.64595,0.60287 3.1483,0.93792 4.72246,3.34941 4.72249,7.23446 l 0,106.60783" />
        <path
           inkscape:connector-curvature="0"
           id="path3836"
           style="font-size:205.78024292px;font-style:normal;font-variant:normal;font-weight:normal;font-stretch:normal;line-height:125%;letter-spacing:0px;word-spacing:0px;fill:#b0dfde;fill-opacity:1;stroke:#ffffff;stroke-width:13.20444584;stroke-miterlimit:4;stroke-opacity:1;stroke-dasharray:none;font-family:Neuropol;-inkscape-font-specification:Neuropol"
           d="m 562.95581,640.30617 c -9e-5,11.11972 -0.73508,19.02403 -2.20499,23.71296 -3.60505,11.52161 -12.05748,17.28238 -25.35732,17.28233 l -26.51231,0 c -10.77994,5e-5 -16.1699,3.85172 -16.16989,11.55504 l 0,21.50243 65.88703,0 c 2.8349,10e-6 4.25239,3.04786 4.25248,9.14355 -9e-5,6.16269 -1.41758,9.24404 -4.25248,9.24404 l -73.34198,0 c -2.72998,0 -4.09497,-2.64594 -4.09497,-7.93782 l 0,-31.75124 c 0,-13.73203 4.98746,-22.90907 14.9624,-27.53115 1.92497,-0.87075 3.95495,-1.50711 6.08995,-1.90909 2.16996,-0.46883 4.47994,-0.70328 6.92996,-0.70335 l 25.82981,0 c 2.90492,7e-5 6.1599,-0.66979 9.76493,-2.00958 4.3749,-2.0095 6.56238,-5.35878 6.56246,-10.04786 l 0,-10.44978 c -8e-5,-5.6267 -3.90254,-9.27742 -11.70742,-10.95217 -2.83504,-0.60277 -46.85607,-0.9042 -54.20596,-0.90431 -1.71503,1.1e-4 -2.88752,-1.00468 -3.51747,-3.01436 -0.38505,-1.3396 -0.57755,-3.78458 -0.5775,-7.33494 -5e-5,-5.22477 1.36494,-7.83721 4.09497,-7.83733 5.91491,1.2e-4 49.55093,0.13409 53.05097,0.40192 3.49991,0.20107 5.98489,0.536 7.45494,1.00478 4.5849,1.47381 8.39987,4.42118 11.44493,8.84212 3.74488,5.42595 5.61737,11.99055 5.61746,19.69381"
           sodipodi:nodetypes="ccssscscsssscccccccccccccccc" />
      </g>
      <g
         transform="matrix(1.3631772,0,0,1.3631772,-106.93853,-391.37577)"
         id="g3822">
        <path
           inkscape:connector-curvature="0"
           id="path3816"
           style="font-size:205.78024292px;font-style:normal;font-variant:normal;font-weight:normal;font-stretch:normal;line-height:125%;letter-spacing:0px;word-spacing:0px;fill:#b0dfde;fill-opacity:1;stroke:none;font-family:Neuropol;-inkscape-font-specification:Neuropol"
           d="m 465.47062,724.8087 c -3e-5,3.95217 -1.57419,6.39715 -4.72249,7.33495 -1.33974,0.40191 -4.55506,0.60287 -9.64595,0.60287 -5.29189,0 -7.93782,-2.64594 -7.93782,-7.93782 l 0,-106.60783 c 0,-5.22477 2.64593,-7.83721 7.93782,-7.83733 5.09089,1.2e-4 8.30621,0.20108 9.64595,0.60287 3.1483,0.93792 4.72246,3.34941 4.72249,7.23446 l 0,106.60783" />
        <path
           inkscape:connector-curvature="0"
           id="path3818"
           style="font-size:205.78024292px;font-style:normal;font-variant:normal;font-weight:normal;font-stretch:normal;line-height:125%;letter-spacing:0px;word-spacing:0px;fill:#b0dfde;fill-opacity:1;stroke:none;font-family:Neuropol;-inkscape-font-specification:Neuropol"
           d="m 562.95581,640.30617 c -9e-5,11.11972 -0.73508,19.02403 -2.20499,23.71296 -3.60505,11.52161 -12.05748,17.28238 -25.35732,17.28233 l -26.51231,0 c -10.77994,5e-5 -16.1699,3.85172 -16.16989,11.55504 l 0,21.50243 65.88703,0 c 2.8349,10e-6 4.25239,3.04786 4.25248,9.14355 -9e-5,6.16269 -1.41758,9.24404 -4.25248,9.24404 l -73.34198,0 c -2.72998,0 -4.09497,-2.64594 -4.09497,-7.93782 l 0,-31.75124 c 0,-13.73203 4.98746,-22.90907 14.9624,-27.53115 1.92497,-0.87075 3.95495,-1.50711 6.08995,-1.90909 2.16996,-0.46883 4.47994,-0.70328 6.92996,-0.70335 l 25.82981,0 c 2.90492,7e-5 6.1599,-0.66979 9.76493,-2.00958 4.3749,-2.0095 6.56238,-5.35878 6.56246,-10.04786 l 0,-10.44978 c -8e-5,-5.6267 -3.90254,-9.27742 -11.70742,-10.95217 -2.83504,-0.60277 -46.85607,-0.9042 -54.20596,-0.90431 -1.71503,1.1e-4 -2.88752,-1.00468 -3.51747,-3.01436 -0.38505,-1.3396 -0.57755,-3.78458 -0.5775,-7.33494 -5e-5,-5.22477 1.36494,-7.83721 4.09497,-7.83733 5.91491,1.2e-4 49.55093,0.13409 53.05097,0.40192 3.49991,0.20107 5.98489,0.536 7.45494,1.00478 4.5849,1.47381 8.39987,4.42118 11.44493,8.84212 3.74488,5.42595 5.61737,11.99055 5.61746,19.69381"
           sodipodi:nodetypes="ccssscscsssscccccccccccccccc" />
      </g>
    </g>
    <g
       id="g3133"
       transform="matrix(0.617048,0,0,0.59512387,31.975928,-14.120187)"
       inkscape:export-filename="/home/wouerner/public_html/multiplicacao/art/cartao_v.png"
       inkscape:export-xdpi="300"
       inkscape:export-ydpi="300">
      <text
         inkscape:export-ydpi="90"
         inkscape:export-xdpi="90"
         inkscape:export-filename="/home/wouerner/public_html/multiplicacao/art/logo.png"
         xml:space="preserve"
         style="font-size:54.10581589px;font-style:normal;font-variant:normal;font-weight:normal;font-stretch:normal;line-height:125%;letter-spacing:0px;word-spacing:0px;fill:#000000;fill-opacity:1;stroke:#b0e0df;stroke-width:8.58164787;stroke-miterlimit:4;stroke-opacity:1;stroke-dasharray:none;font-family:Neuropol;-inkscape-font-specification:Neuropol"
         x="-28.705103"
         y="120.70374"
         id="text3805"
         sodipodi:linespacing="125%"><tspan
           style="stroke-width:8.58164787"
           sodipodi:role="line"
           id="tspan3807"
           x="-28.705103"
           y="120.70374">Multiplicação</tspan><tspan
           style="stroke-width:8.58164787"
           sodipodi:role="line"
           x="-28.705103"
           y="188.33601"
           id="tspan3809" /></text>
      <text
         inkscape:export-ydpi="90"
         inkscape:export-xdpi="90"
         inkscape:export-filename="/home/wouerner/public_html/multiplicacao/art/logo.png"
         xml:space="preserve"
         style="font-size:54.10581589px;font-style:normal;font-variant:normal;font-weight:normal;font-stretch:normal;line-height:125%;letter-spacing:0px;word-spacing:0px;fill:#cccccc;fill-opacity:1;stroke:#b6b6b6;stroke-width:4.79141951;stroke-miterlimit:4;stroke-opacity:1;stroke-dasharray:none;font-family:Neuropol;-inkscape-font-specification:Neuropol"
         x="-28.705103"
         y="120.70374"
         id="text3797"
         sodipodi:linespacing="125%"><tspan
           style="stroke-width:4.79141951"
           sodipodi:role="line"
           id="tspan3799"
           x="-28.705103"
           y="120.70374">Multiplicação</tspan><tspan
           style="stroke-width:4.79141951"
           sodipodi:role="line"
           x="-28.705103"
           y="188.33601"
           id="tspan3801" /></text>
      <text
         inkscape:export-ydpi="90"
         inkscape:export-xdpi="90"
         inkscape:export-filename="/home/wouerner/public_html/multiplicacao/art/logo.png"
         sodipodi:linespacing="125%"
         id="text2985"
         y="120.70374"
         x="-28.705103"
         style="font-size:54.10581589px;font-style:normal;font-variant:normal;font-weight:normal;font-stretch:normal;line-height:125%;letter-spacing:0px;word-spacing:0px;fill:#ffffff;fill-opacity:1;stroke:none;font-family:Neuropol;-inkscape-font-specification:Neuropol"
         xml:space="preserve"><tspan
           y="120.70374"
           x="-28.705103"
           id="tspan2987"
           sodipodi:role="line">Multiplicação</tspan><tspan
           id="tspan2989"
           y="188.33601"
           x="-28.705103"
           sodipodi:role="line" /></text>
    </g>
    <text
       xml:space="preserve"
       style="font-size:18.42002106px;font-style:normal;font-weight:normal;line-height:125%;letter-spacing:0px;word-spacing:0px;fill:#000000;fill-opacity:1;stroke:none;font-family:Sans"
       x="15.561438"
       y="29.355888"
       id="text3148"
       sodipodi:linespacing="125%"
       transform="scale(1.0405314,0.9610474)"
       inkscape:export-filename="/home/wouerner/public_html/multiplicacao/art/cartao_v.png"
       inkscape:export-xdpi="300"
       inkscape:export-ydpi="300"><tspan
         sodipodi:role="line"
         id="tspan3150"
         x="15.561438"
         y="29.355888"
         style="font-style:normal;font-variant:normal;font-weight:bold;font-stretch:normal;font-family:Courier 10 Pitch;-inkscape-font-specification:Courier 10 Pitch Bold">www.wouerner.eti.br</tspan></text>
    <rect
       style="fill:#ffffff;fill-opacity:0.86792453;stroke:none"
       id="rect3152"
       width="290"
       height="79.166664"
       x="15"
       y="87.998695"
       rx="3.5250394"
       ry="4.6188636"
       inkscape:export-filename="/home/wouerner/public_html/multiplicacao/art/cartao_v.png"
       inkscape:export-xdpi="300"
       inkscape:export-ydpi="300" />
    <text
       xml:space="preserve"
       style="font-size:40px;font-style:normal;font-weight:normal;line-height:125%;letter-spacing:0px;word-spacing:0px;fill:#000000;fill-opacity:1;stroke:none;font-family:Sans"
       x="30.833332"
       y="106.33203"
       id="text3154"
       sodipodi:linespacing="125%"><tspan
         sodipodi:role="line"
         id="tspan3156"
         x="30.833332"
         y="106.33203" /></text>
    <text
       xml:space="preserve"
       style="font-size:21.44542122px;font-style:normal;font-weight:normal;line-height:125%;letter-spacing:0px;word-spacing:0px;fill:#000000;fill-opacity:1;stroke:none;font-family:Sans"
       x="26.552868"
       y="104.36854"
       id="text3158"
       sodipodi:linespacing="125%"
       transform="scale(0.88407915,1.1311204)"
       inkscape:export-filename="/home/wouerner/public_html/multiplicacao/art/cartao_v.png"
       inkscape:export-xdpi="300"
       inkscape:export-ydpi="300"><tspan
         sodipodi:role="line"
         id="tspan3160"
         x="26.552868"
         y="104.36854">(61) 9374-2501 / 3331-4809</tspan></text>
    <text
       xml:space="preserve"
       style="font-size:25.55795479px;font-style:normal;font-weight:normal;line-height:125%;letter-spacing:0px;word-spacing:0px;fill:#000000;fill-opacity:1;stroke:none;font-family:Sans"
       x="25.533253"
       y="145.88245"
       id="text3166"
       sodipodi:linespacing="125%"
       transform="scale(0.96875615,1.0322515)"
       inkscape:export-filename="/home/wouerner/public_html/multiplicacao/art/cartao_v.png"
       inkscape:export-xdpi="300"
       inkscape:export-ydpi="300"><tspan
         sodipodi:role="line"
         id="tspan3168"
         x="25.533253"
         y="145.88245">wouerner@gmail.com</tspan></text>
    <text
       xml:space="preserve"
       style="font-size:26.3784771px;font-style:normal;font-weight:normal;line-height:125%;letter-spacing:0px;word-spacing:0px;fill:#ffffff;fill-opacity:1;stroke:none;font-family:Sans"
       x="10.019079"
       y="102.12234"
       id="text3172"
       sodipodi:linespacing="125%"
       transform="scale(1.2899876,0.77520125)"
       inkscape:export-filename="/home/wouerner/public_html/multiplicacao/art/cartao_v.png"
       inkscape:export-xdpi="300"
       inkscape:export-ydpi="300"><tspan
         sodipodi:role="line"
         id="tspan3174"
         x="10.019079"
         y="102.12234"
         style="font-style:italic;font-variant:normal;font-weight:bold;font-stretch:normal;fill:#ffffff;font-family:URW Chancery L;-inkscape-font-specification:URW Chancery L Bold Italic">Visão e Planejamento</tspan></text>
  </g>
</svg>
