<?xml version="1.0" encoding="UTF-8" standalone="no"?>
<!-- Created with Inkscape (http://www.inkscape.org/) -->

<svg
   xmlns:dc="http://purl.org/dc/elements/1.1/"
   xmlns:cc="http://creativecommons.org/ns#"
   xmlns:rdf="http://www.w3.org/1999/02/22-rdf-syntax-ns#"
   xmlns:svg="http://www.w3.org/2000/svg"
   xmlns="http://www.w3.org/2000/svg"
   xmlns:sodipodi="http://sodipodi.sourceforge.net/DTD/sodipodi-0.dtd"
   xmlns:inkscape="http://www.inkscape.org/namespaces/inkscape"
   width="744.09448819"
   height="1052.3622047"
   id="svg2"
   version="1.1"
   inkscape:version="0.48.3.1 r9886"
   sodipodi:docname="drawing.svg">
  <defs
     id="defs4" />
  <sodipodi:namedview
     id="base"
     pagecolor="#ffffff"
     bordercolor="#666666"
     borderopacity="1.0"
     inkscape:pageopacity="0.0"
     inkscape:pageshadow="2"
     inkscape:zoom="0.7"
     inkscape:cx="349.03056"
     inkscape:cy="718.32435"
     inkscape:document-units="px"
     inkscape:current-layer="layer1"
     showgrid="false"
     inkscape:window-width="1366"
     inkscape:window-height="748"
     inkscape:window-x="-2"
     inkscape:window-y="-3"
     inkscape:window-maximized="1" />
  <metadata
     id="metadata7">
    <rdf:RDF>
      <cc:Work
         rdf:about="">
        <dc:format>image/svg+xml</dc:format>
        <dc:type
           rdf:resource="http://purl.org/dc/dcmitype/StillImage" />
        <dc:title></dc:title>
      </cc:Work>
    </rdf:RDF>
  </metadata>
  <g
     inkscape:label="Layer 1"
     inkscape:groupmode="layer"
     id="layer1">
    <rect
       style="color:#000000;fill:#808080;fill-opacity:1;fill-rule:nonzero;stroke:#ffffff;stroke-width:3.06143475;stroke-linecap:round;stroke-linejoin:miter;stroke-miterlimit:4;stroke-opacity:1;stroke-dasharray:none;stroke-dashoffset:0;marker:none;visibility:visible;display:inline;overflow:visible;enable-background:accumulate"
       id="rect3027"
       width="644.28607"
       height="168.71031"
       x="15.714288"
       y="439.36624"
       rx="5"
       ry="4.9207153"
       inkscape:export-filename="/home/wouerner/public_html/multiplicacao/art/logo.png"
       inkscape:export-xdpi="90"
       inkscape:export-ydpi="90" />
    <g
       id="g3838"
       inkscape:export-filename="/home/wouerner/public_html/multiplicacao/art/logo.png"
       inkscape:export-xdpi="90"
       inkscape:export-ydpi="90">
      <g
         style="stroke:#000000;stroke-opacity:1;stroke-width:8.06938379;stroke-miterlimit:4;stroke-dasharray:none"
         id="g3826"
         transform="matrix(1.3631772,0,0,1.3631772,-106.93853,-391.37577)">
        <path
           d="m 465.47062,724.8087 c -3e-5,3.95217 -1.57419,6.39715 -4.72249,7.33495 -1.33974,0.40191 -4.55506,0.60287 -9.64595,0.60287 -5.29189,0 -7.93782,-2.64594 -7.93782,-7.93782 l 0,-106.60783 c 0,-5.22477 2.64593,-7.83721 7.93782,-7.83733 5.09089,1.2e-4 8.30621,0.20108 9.64595,0.60287 3.1483,0.93792 4.72246,3.34941 4.72249,7.23446 l 0,106.60783"
           style="font-size:205.78024291999997786px;font-style:normal;font-variant:normal;font-weight:normal;font-stretch:normal;line-height:125%;letter-spacing:0px;word-spacing:0px;fill:#b0dfde;fill-opacity:1;stroke:#000000;font-family:Neuropol;-inkscape-font-specification:Neuropol;stroke-opacity:1;stroke-width:8.06938379;stroke-miterlimit:4;stroke-dasharray:none"
           id="path3828"
           inkscape:connector-curvature="0" />
        <path
           sodipodi:nodetypes="ccssscscsssscccccccccccccccc"
           d="m 562.95581,640.30617 c -9e-5,11.11972 -0.73508,19.02403 -2.20499,23.71296 -3.60505,11.52161 -12.05748,17.28238 -25.35732,17.28233 l -26.51231,0 c -10.77994,5e-5 -16.1699,3.85172 -16.16989,11.55504 l 0,21.50243 65.88703,0 c 2.8349,10e-6 4.25239,3.04786 4.25248,9.14355 -9e-5,6.16269 -1.41758,9.24404 -4.25248,9.24404 l -73.34198,0 c -2.72998,0 -4.09497,-2.64594 -4.09497,-7.93782 l 0,-31.75124 c 0,-13.73203 4.98746,-22.90907 14.9624,-27.53115 1.92497,-0.87075 3.95495,-1.50711 6.08995,-1.90909 2.16996,-0.46883 4.47994,-0.70328 6.92996,-0.70335 l 25.82981,0 c 2.90492,7e-5 6.1599,-0.66979 9.76493,-2.00958 4.3749,-2.0095 6.56238,-5.35878 6.56246,-10.04786 l 0,-10.44978 c -8e-5,-5.6267 -3.90254,-9.27742 -11.70742,-10.95217 -2.83504,-0.60277 -46.85607,-0.9042 -54.20596,-0.90431 -1.71503,1.1e-4 -2.88752,-1.00468 -3.51747,-3.01436 -0.38505,-1.3396 -0.57755,-3.78458 -0.5775,-7.33494 -5e-5,-5.22477 1.36494,-7.83721 4.09497,-7.83733 5.91491,1.2e-4 49.55093,0.13409 53.05097,0.40192 3.49991,0.20107 5.98489,0.536 7.45494,1.00478 4.5849,1.47381 8.39987,4.42118 11.44493,8.84212 3.74488,5.42595 5.61737,11.99055 5.61746,19.69381"
           style="font-size:205.78024291999997786px;font-style:normal;font-variant:normal;font-weight:normal;font-stretch:normal;line-height:125%;letter-spacing:0px;word-spacing:0px;fill:#b0dfde;fill-opacity:1;stroke:#000000;font-family:Neuropol;-inkscape-font-specification:Neuropol;stroke-opacity:1;stroke-width:8.06938379;stroke-miterlimit:4;stroke-dasharray:none"
           id="path3830"
           inkscape:connector-curvature="0" />
      </g>
      <g
         transform="matrix(1.3631772,0,0,1.3631772,-106.93853,-391.37577)"
         id="g3832"
         style="stroke:#ffffff;stroke-opacity:1;stroke-width:13.2044462;stroke-miterlimit:4;stroke-dasharray:none">
        <path
           inkscape:connector-curvature="0"
           id="path3834"
           style="font-size:205.78024291999997786px;font-style:normal;font-variant:normal;font-weight:normal;font-stretch:normal;line-height:125%;letter-spacing:0px;word-spacing:0px;fill:#b0dfde;fill-opacity:1;stroke:#ffffff;font-family:Neuropol;-inkscape-font-specification:Neuropol;stroke-opacity:1;stroke-width:13.2044462;stroke-miterlimit:4;stroke-dasharray:none"
           d="m 465.47062,724.8087 c -3e-5,3.95217 -1.57419,6.39715 -4.72249,7.33495 -1.33974,0.40191 -4.55506,0.60287 -9.64595,0.60287 -5.29189,0 -7.93782,-2.64594 -7.93782,-7.93782 l 0,-106.60783 c 0,-5.22477 2.64593,-7.83721 7.93782,-7.83733 5.09089,1.2e-4 8.30621,0.20108 9.64595,0.60287 3.1483,0.93792 4.72246,3.34941 4.72249,7.23446 l 0,106.60783" />
        <path
           inkscape:connector-curvature="0"
           id="path3836"
           style="font-size:205.78024291999997786px;font-style:normal;font-variant:normal;font-weight:normal;font-stretch:normal;line-height:125%;letter-spacing:0px;word-spacing:0px;fill:#b0dfde;fill-opacity:1;stroke:#ffffff;font-family:Neuropol;-inkscape-font-specification:Neuropol;stroke-opacity:1;stroke-width:13.2044462;stroke-miterlimit:4;stroke-dasharray:none"
           d="m 562.95581,640.30617 c -9e-5,11.11972 -0.73508,19.02403 -2.20499,23.71296 -3.60505,11.52161 -12.05748,17.28238 -25.35732,17.28233 l -26.51231,0 c -10.77994,5e-5 -16.1699,3.85172 -16.16989,11.55504 l 0,21.50243 65.88703,0 c 2.8349,10e-6 4.25239,3.04786 4.25248,9.14355 -9e-5,6.16269 -1.41758,9.24404 -4.25248,9.24404 l -73.34198,0 c -2.72998,0 -4.09497,-2.64594 -4.09497,-7.93782 l 0,-31.75124 c 0,-13.73203 4.98746,-22.90907 14.9624,-27.53115 1.92497,-0.87075 3.95495,-1.50711 6.08995,-1.90909 2.16996,-0.46883 4.47994,-0.70328 6.92996,-0.70335 l 25.82981,0 c 2.90492,7e-5 6.1599,-0.66979 9.76493,-2.00958 4.3749,-2.0095 6.56238,-5.35878 6.56246,-10.04786 l 0,-10.44978 c -8e-5,-5.6267 -3.90254,-9.27742 -11.70742,-10.95217 -2.83504,-0.60277 -46.85607,-0.9042 -54.20596,-0.90431 -1.71503,1.1e-4 -2.88752,-1.00468 -3.51747,-3.01436 -0.38505,-1.3396 -0.57755,-3.78458 -0.5775,-7.33494 -5e-5,-5.22477 1.36494,-7.83721 4.09497,-7.83733 5.91491,1.2e-4 49.55093,0.13409 53.05097,0.40192 3.49991,0.20107 5.98489,0.536 7.45494,1.00478 4.5849,1.47381 8.39987,4.42118 11.44493,8.84212 3.74488,5.42595 5.61737,11.99055 5.61746,19.69381"
           sodipodi:nodetypes="ccssscscsssscccccccccccccccc" />
      </g>
      <g
         transform="matrix(1.3631772,0,0,1.3631772,-106.93853,-391.37577)"
         id="g3822">
        <path
           inkscape:connector-curvature="0"
           id="path3816"
           style="font-size:205.78024292px;font-style:normal;font-variant:normal;font-weight:normal;font-stretch:normal;line-height:125%;letter-spacing:0px;word-spacing:0px;fill:#b0dfde;fill-opacity:1;stroke:none;font-family:Neuropol;-inkscape-font-specification:Neuropol"
           d="m 465.47062,724.8087 c -3e-5,3.95217 -1.57419,6.39715 -4.72249,7.33495 -1.33974,0.40191 -4.55506,0.60287 -9.64595,0.60287 -5.29189,0 -7.93782,-2.64594 -7.93782,-7.93782 l 0,-106.60783 c 0,-5.22477 2.64593,-7.83721 7.93782,-7.83733 5.09089,1.2e-4 8.30621,0.20108 9.64595,0.60287 3.1483,0.93792 4.72246,3.34941 4.72249,7.23446 l 0,106.60783" />
        <path
           inkscape:connector-curvature="0"
           id="path3818"
           style="font-size:205.78024292px;font-style:normal;font-variant:normal;font-weight:normal;font-stretch:normal;line-height:125%;letter-spacing:0px;word-spacing:0px;fill:#b0dfde;fill-opacity:1;stroke:none;font-family:Neuropol;-inkscape-font-specification:Neuropol"
           d="m 562.95581,640.30617 c -9e-5,11.11972 -0.73508,19.02403 -2.20499,23.71296 -3.60505,11.52161 -12.05748,17.28238 -25.35732,17.28233 l -26.51231,0 c -10.77994,5e-5 -16.1699,3.85172 -16.16989,11.55504 l 0,21.50243 65.88703,0 c 2.8349,10e-6 4.25239,3.04786 4.25248,9.14355 -9e-5,6.16269 -1.41758,9.24404 -4.25248,9.24404 l -73.34198,0 c -2.72998,0 -4.09497,-2.64594 -4.09497,-7.93782 l 0,-31.75124 c 0,-13.73203 4.98746,-22.90907 14.9624,-27.53115 1.92497,-0.87075 3.95495,-1.50711 6.08995,-1.90909 2.16996,-0.46883 4.47994,-0.70328 6.92996,-0.70335 l 25.82981,0 c 2.90492,7e-5 6.1599,-0.66979 9.76493,-2.00958 4.3749,-2.0095 6.56238,-5.35878 6.56246,-10.04786 l 0,-10.44978 c -8e-5,-5.6267 -3.90254,-9.27742 -11.70742,-10.95217 -2.83504,-0.60277 -46.85607,-0.9042 -54.20596,-0.90431 -1.71503,1.1e-4 -2.88752,-1.00468 -3.51747,-3.01436 -0.38505,-1.3396 -0.57755,-3.78458 -0.5775,-7.33494 -5e-5,-5.22477 1.36494,-7.83721 4.09497,-7.83733 5.91491,1.2e-4 49.55093,0.13409 53.05097,0.40192 3.49991,0.20107 5.98489,0.536 7.45494,1.00478 4.5849,1.47381 8.39987,4.42118 11.44493,8.84212 3.74488,5.42595 5.61737,11.99055 5.61746,19.69381"
           sodipodi:nodetypes="ccssscscsssscccccccccccccccc" />
      </g>
    </g>
    <text
       sodipodi:linespacing="125%"
       id="text3805"
       y="543.4809"
       x="29.012583"
       style="font-size:75.65794372999999950px;font-style:normal;font-variant:normal;font-weight:normal;font-stretch:normal;line-height:125%;letter-spacing:0px;word-spacing:0px;fill:#000000;fill-opacity:1;stroke:#b0e0df;font-family:Neuropol;-inkscape-font-specification:Neuropol;stroke-opacity:1;stroke-width:12.00000037999999947;stroke-miterlimit:4;stroke-dasharray:none"
       xml:space="preserve"
       inkscape:export-filename="/home/wouerner/public_html/multiplicacao/art/logo.png"
       inkscape:export-xdpi="90"
       inkscape:export-ydpi="90"><tspan
         y="543.4809"
         x="29.012583"
         id="tspan3807"
         sodipodi:role="line">Multiplicação</tspan><tspan
         id="tspan3809"
         y="638.05328"
         x="29.012583"
         sodipodi:role="line" /></text>
    <text
       sodipodi:linespacing="125%"
       id="text3797"
       y="543.4809"
       x="29.012583"
       style="font-size:75.65794372999999950px;font-style:normal;font-variant:normal;font-weight:normal;font-stretch:normal;line-height:125%;letter-spacing:0px;word-spacing:0px;fill:#cccccc;fill-opacity:1;stroke:#b6b6b6;font-family:Neuropol;-inkscape-font-specification:Neuropol;stroke-opacity:1;stroke-width:6.70000000000000018;stroke-miterlimit:4;stroke-dasharray:none"
       xml:space="preserve"
       inkscape:export-filename="/home/wouerner/public_html/multiplicacao/art/logo.png"
       inkscape:export-xdpi="90"
       inkscape:export-ydpi="90"><tspan
         y="543.4809"
         x="29.012583"
         id="tspan3799"
         sodipodi:role="line">Multiplicação</tspan><tspan
         id="tspan3801"
         y="638.05328"
         x="29.012583"
         sodipodi:role="line" /></text>
    <text
       xml:space="preserve"
       style="font-size:75.65794372999999950px;font-style:normal;font-variant:normal;font-weight:normal;font-stretch:normal;line-height:125%;letter-spacing:0px;word-spacing:0px;fill:#ffffff;fill-opacity:1;stroke:none;font-family:Neuropol;-inkscape-font-specification:Neuropol"
       x="29.012583"
       y="543.4809"
       id="text2985"
       sodipodi:linespacing="125%"
       inkscape:export-filename="/home/wouerner/public_html/multiplicacao/art/logo.png"
       inkscape:export-xdpi="90"
       inkscape:export-ydpi="90"><tspan
         sodipodi:role="line"
         id="tspan2987"
         x="29.012583"
         y="543.4809">Multiplicação</tspan><tspan
         sodipodi:role="line"
         x="29.012583"
         y="638.05328"
         id="tspan2989" /></text>
    <path
       style="color:#000000;fill:#ffffff;fill-opacity:1;fill-rule:nonzero;stroke:#ffffff;stroke-width:3.06143475000000009;stroke-linecap:round;stroke-linejoin:miter;stroke-miterlimit:4;stroke-opacity:1;stroke-dasharray:none;stroke-dashoffset:0;marker:none;visibility:visible;display:inline;overflow:visible;enable-background:accumulate;opacity:0.23694779"
       d="M 20.71875 439.375 C 17.94875 439.375 15.71875 441.55517 15.71875 444.28125 L 15.71875 567.0625 C 96.245912 590.36567 230.72768 608.37302 352.84375 526.65625 C 472.79218 446.39 589.89359 438.42596 659.9375 443.46875 C 659.54659 441.13148 657.489 439.375 655 439.375 L 20.71875 439.375 z "
       id="rect3849"
       inkscape:export-filename="/home/wouerner/public_html/multiplicacao/art/logo.png"
       inkscape:export-xdpi="90"
       inkscape:export-ydpi="90" />
    <g
       inkscape:export-ydpi="90"
       inkscape:export-xdpi="90"
       inkscape:export-filename="/home/wouerner/public_html/multiplicacao/art/logo_mini.png"
       id="g3854"
       transform="translate(-127.14286,335.71429)">
      <g
         transform="matrix(1.3631772,0,0,1.3631772,-106.93853,-391.37577)"
         id="g3856"
         style="stroke:#000000;stroke-width:8.06938362;stroke-miterlimit:4;stroke-opacity:1;stroke-dasharray:none">
        <path
           inkscape:connector-curvature="0"
           id="path3858"
           style="font-size:205.78024292px;font-style:normal;font-variant:normal;font-weight:normal;font-stretch:normal;line-height:125%;letter-spacing:0px;word-spacing:0px;fill:#b0dfde;fill-opacity:1;stroke:#000000;stroke-width:8.06938362;stroke-miterlimit:4;stroke-opacity:1;stroke-dasharray:none;font-family:Neuropol;-inkscape-font-specification:Neuropol"
           d="m 465.47062,724.8087 c -3e-5,3.95217 -1.57419,6.39715 -4.72249,7.33495 -1.33974,0.40191 -4.55506,0.60287 -9.64595,0.60287 -5.29189,0 -7.93782,-2.64594 -7.93782,-7.93782 l 0,-106.60783 c 0,-5.22477 2.64593,-7.83721 7.93782,-7.83733 5.09089,1.2e-4 8.30621,0.20108 9.64595,0.60287 3.1483,0.93792 4.72246,3.34941 4.72249,7.23446 l 0,106.60783" />
        <path
           inkscape:connector-curvature="0"
           id="path3860"
           style="font-size:205.78024292px;font-style:normal;font-variant:normal;font-weight:normal;font-stretch:normal;line-height:125%;letter-spacing:0px;word-spacing:0px;fill:#b0dfde;fill-opacity:1;stroke:#000000;stroke-width:8.06938362;stroke-miterlimit:4;stroke-opacity:1;stroke-dasharray:none;font-family:Neuropol;-inkscape-font-specification:Neuropol"
           d="m 562.95581,640.30617 c -9e-5,11.11972 -0.73508,19.02403 -2.20499,23.71296 -3.60505,11.52161 -12.05748,17.28238 -25.35732,17.28233 l -26.51231,0 c -10.77994,5e-5 -16.1699,3.85172 -16.16989,11.55504 l 0,21.50243 65.88703,0 c 2.8349,10e-6 4.25239,3.04786 4.25248,9.14355 -9e-5,6.16269 -1.41758,9.24404 -4.25248,9.24404 l -73.34198,0 c -2.72998,0 -4.09497,-2.64594 -4.09497,-7.93782 l 0,-31.75124 c 0,-13.73203 4.98746,-22.90907 14.9624,-27.53115 1.92497,-0.87075 3.95495,-1.50711 6.08995,-1.90909 2.16996,-0.46883 4.47994,-0.70328 6.92996,-0.70335 l 25.82981,0 c 2.90492,7e-5 6.1599,-0.66979 9.76493,-2.00958 4.3749,-2.0095 6.56238,-5.35878 6.56246,-10.04786 l 0,-10.44978 c -8e-5,-5.6267 -3.90254,-9.27742 -11.70742,-10.95217 -2.83504,-0.60277 -46.85607,-0.9042 -54.20596,-0.90431 -1.71503,1.1e-4 -2.88752,-1.00468 -3.51747,-3.01436 -0.38505,-1.3396 -0.57755,-3.78458 -0.5775,-7.33494 -5e-5,-5.22477 1.36494,-7.83721 4.09497,-7.83733 5.91491,1.2e-4 49.55093,0.13409 53.05097,0.40192 3.49991,0.20107 5.98489,0.536 7.45494,1.00478 4.5849,1.47381 8.39987,4.42118 11.44493,8.84212 3.74488,5.42595 5.61737,11.99055 5.61746,19.69381"
           sodipodi:nodetypes="ccssscscsssscccccccccccccccc" />
      </g>
      <g
         style="stroke:#ffffff;stroke-width:13.20444584;stroke-miterlimit:4;stroke-opacity:1;stroke-dasharray:none"
         id="g3862"
         transform="matrix(1.3631772,0,0,1.3631772,-106.93853,-391.37577)">
        <path
           d="m 465.47062,724.8087 c -3e-5,3.95217 -1.57419,6.39715 -4.72249,7.33495 -1.33974,0.40191 -4.55506,0.60287 -9.64595,0.60287 -5.29189,0 -7.93782,-2.64594 -7.93782,-7.93782 l 0,-106.60783 c 0,-5.22477 2.64593,-7.83721 7.93782,-7.83733 5.09089,1.2e-4 8.30621,0.20108 9.64595,0.60287 3.1483,0.93792 4.72246,3.34941 4.72249,7.23446 l 0,106.60783"
           style="font-size:205.78024292px;font-style:normal;font-variant:normal;font-weight:normal;font-stretch:normal;line-height:125%;letter-spacing:0px;word-spacing:0px;fill:#b0dfde;fill-opacity:1;stroke:#ffffff;stroke-width:13.20444584;stroke-miterlimit:4;stroke-opacity:1;stroke-dasharray:none;font-family:Neuropol;-inkscape-font-specification:Neuropol"
           id="path3864"
           inkscape:connector-curvature="0" />
        <path
           sodipodi:nodetypes="ccssscscsssscccccccccccccccc"
           d="m 562.95581,640.30617 c -9e-5,11.11972 -0.73508,19.02403 -2.20499,23.71296 -3.60505,11.52161 -12.05748,17.28238 -25.35732,17.28233 l -26.51231,0 c -10.77994,5e-5 -16.1699,3.85172 -16.16989,11.55504 l 0,21.50243 65.88703,0 c 2.8349,10e-6 4.25239,3.04786 4.25248,9.14355 -9e-5,6.16269 -1.41758,9.24404 -4.25248,9.24404 l -73.34198,0 c -2.72998,0 -4.09497,-2.64594 -4.09497,-7.93782 l 0,-31.75124 c 0,-13.73203 4.98746,-22.90907 14.9624,-27.53115 1.92497,-0.87075 3.95495,-1.50711 6.08995,-1.90909 2.16996,-0.46883 4.47994,-0.70328 6.92996,-0.70335 l 25.82981,0 c 2.90492,7e-5 6.1599,-0.66979 9.76493,-2.00958 4.3749,-2.0095 6.56238,-5.35878 6.56246,-10.04786 l 0,-10.44978 c -8e-5,-5.6267 -3.90254,-9.27742 -11.70742,-10.95217 -2.83504,-0.60277 -46.85607,-0.9042 -54.20596,-0.90431 -1.71503,1.1e-4 -2.88752,-1.00468 -3.51747,-3.01436 -0.38505,-1.3396 -0.57755,-3.78458 -0.5775,-7.33494 -5e-5,-5.22477 1.36494,-7.83721 4.09497,-7.83733 5.91491,1.2e-4 49.55093,0.13409 53.05097,0.40192 3.49991,0.20107 5.98489,0.536 7.45494,1.00478 4.5849,1.47381 8.39987,4.42118 11.44493,8.84212 3.74488,5.42595 5.61737,11.99055 5.61746,19.69381"
           style="font-size:205.78024292px;font-style:normal;font-variant:normal;font-weight:normal;font-stretch:normal;line-height:125%;letter-spacing:0px;word-spacing:0px;fill:#b0dfde;fill-opacity:1;stroke:#ffffff;stroke-width:13.20444584;stroke-miterlimit:4;stroke-opacity:1;stroke-dasharray:none;font-family:Neuropol;-inkscape-font-specification:Neuropol"
           id="path3866"
           inkscape:connector-curvature="0" />
      </g>
      <g
         id="g3868"
         transform="matrix(1.3631772,0,0,1.3631772,-106.93853,-391.37577)">
        <path
           d="m 465.47062,724.8087 c -3e-5,3.95217 -1.57419,6.39715 -4.72249,7.33495 -1.33974,0.40191 -4.55506,0.60287 -9.64595,0.60287 -5.29189,0 -7.93782,-2.64594 -7.93782,-7.93782 l 0,-106.60783 c 0,-5.22477 2.64593,-7.83721 7.93782,-7.83733 5.09089,1.2e-4 8.30621,0.20108 9.64595,0.60287 3.1483,0.93792 4.72246,3.34941 4.72249,7.23446 l 0,106.60783"
           style="font-size:205.78024292px;font-style:normal;font-variant:normal;font-weight:normal;font-stretch:normal;line-height:125%;letter-spacing:0px;word-spacing:0px;fill:#b0dfde;fill-opacity:1;stroke:none;font-family:Neuropol;-inkscape-font-specification:Neuropol"
           id="path3870"
           inkscape:connector-curvature="0" />
        <path
           sodipodi:nodetypes="ccssscscsssscccccccccccccccc"
           d="m 562.95581,640.30617 c -9e-5,11.11972 -0.73508,19.02403 -2.20499,23.71296 -3.60505,11.52161 -12.05748,17.28238 -25.35732,17.28233 l -26.51231,0 c -10.77994,5e-5 -16.1699,3.85172 -16.16989,11.55504 l 0,21.50243 65.88703,0 c 2.8349,10e-6 4.25239,3.04786 4.25248,9.14355 -9e-5,6.16269 -1.41758,9.24404 -4.25248,9.24404 l -73.34198,0 c -2.72998,0 -4.09497,-2.64594 -4.09497,-7.93782 l 0,-31.75124 c 0,-13.73203 4.98746,-22.90907 14.9624,-27.53115 1.92497,-0.87075 3.95495,-1.50711 6.08995,-1.90909 2.16996,-0.46883 4.47994,-0.70328 6.92996,-0.70335 l 25.82981,0 c 2.90492,7e-5 6.1599,-0.66979 9.76493,-2.00958 4.3749,-2.0095 6.56238,-5.35878 6.56246,-10.04786 l 0,-10.44978 c -8e-5,-5.6267 -3.90254,-9.27742 -11.70742,-10.95217 -2.83504,-0.60277 -46.85607,-0.9042 -54.20596,-0.90431 -1.71503,1.1e-4 -2.88752,-1.00468 -3.51747,-3.01436 -0.38505,-1.3396 -0.57755,-3.78458 -0.5775,-7.33494 -5e-5,-5.22477 1.36494,-7.83721 4.09497,-7.83733 5.91491,1.2e-4 49.55093,0.13409 53.05097,0.40192 3.49991,0.20107 5.98489,0.536 7.45494,1.00478 4.5849,1.47381 8.39987,4.42118 11.44493,8.84212 3.74488,5.42595 5.61737,11.99055 5.61746,19.69381"
           style="font-size:205.78024292px;font-style:normal;font-variant:normal;font-weight:normal;font-stretch:normal;line-height:125%;letter-spacing:0px;word-spacing:0px;fill:#b0dfde;fill-opacity:1;stroke:none;font-family:Neuropol;-inkscape-font-specification:Neuropol"
           id="path3872"
           inkscape:connector-curvature="0" />
      </g>
    </g>
    <g
       id="g3816"
       inkscape:export-filename="/home/wouerner/public_html/multiplicacao/art/cartão.png"
       inkscape:export-xdpi="90"
       inkscape:export-ydpi="90">
      <rect
         style="color:#000000;fill:#808080;fill-opacity:1;fill-rule:nonzero;stroke:#ffffff;stroke-width:4.01748037;stroke-linecap:round;stroke-linejoin:miter;stroke-miterlimit:4;stroke-opacity:1;stroke-dasharray:none;stroke-dashoffset:0;marker:none;visibility:visible;display:inline;overflow:visible;enable-background:accumulate"
         id="rect3013"
         width="566.18719"
         height="330.61142"
         x="16.19231"
         y="44.129974"
         rx="4.3939114"
         ry="9.6428289"
         inkscape:export-filename="/home/wouerner/public_html/multiplicacao/art/logo.png"
         inkscape:export-xdpi="90"
         inkscape:export-ydpi="90" />
      <path
         inkscape:connector-curvature="0"
         style="opacity:0.23694781;color:#000000;fill:#ffffff;fill-opacity:1;fill-rule:nonzero;stroke:#ffffff;stroke-width:4.01748037;stroke-linecap:round;stroke-linejoin:miter;stroke-miterlimit:4;stroke-opacity:1;stroke-dasharray:none;stroke-dashoffset:0;marker:none;visibility:visible;display:inline;overflow:visible;enable-background:accumulate"
         d="m 20.590143,44.147152 c -2.434227,0 -4.393911,4.272347 -4.393911,9.614482 l 0,240.606996 C 86.962073,340.03445 205.14226,375.32237 312.4557,215.18695 417.86425,57.894024 520.77089,42.287375 582.32424,52.169427 c -0.34352,-4.580207 -2.1517,-8.022275 -4.33899,-8.022275 l -557.395107,0 z"
         id="path3015"
         inkscape:export-filename="/home/wouerner/public_html/multiplicacao/art/logo.png"
         inkscape:export-xdpi="90"
         inkscape:export-ydpi="90" />
      <g
         transform="matrix(1.6337881,0,0,1.6337881,-635.42162,-647.86535)"
         id="g3017"
         inkscape:export-filename="/home/wouerner/public_html/multiplicacao/art/logo.png"
         inkscape:export-xdpi="90"
         inkscape:export-ydpi="90">
        <g
           style="stroke:#000000;stroke-width:8.06938362;stroke-miterlimit:4;stroke-opacity:1;stroke-dasharray:none"
           id="g3019"
           transform="matrix(1.3631772,0,0,1.3631772,-106.93853,-391.37577)">
          <path
             d="m 465.47062,724.8087 c -3e-5,3.95217 -1.57419,6.39715 -4.72249,7.33495 -1.33974,0.40191 -4.55506,0.60287 -9.64595,0.60287 -5.29189,0 -7.93782,-2.64594 -7.93782,-7.93782 l 0,-106.60783 c 0,-5.22477 2.64593,-7.83721 7.93782,-7.83733 5.09089,1.2e-4 8.30621,0.20108 9.64595,0.60287 3.1483,0.93792 4.72246,3.34941 4.72249,7.23446 l 0,106.60783"
             style="font-size:205.78024292px;font-style:normal;font-variant:normal;font-weight:normal;font-stretch:normal;line-height:125%;letter-spacing:0px;word-spacing:0px;fill:#b0dfde;fill-opacity:1;stroke:#000000;stroke-width:8.06938362;stroke-miterlimit:4;stroke-opacity:1;stroke-dasharray:none;font-family:Neuropol;-inkscape-font-specification:Neuropol"
             id="path3021"
             inkscape:connector-curvature="0" />
          <path
             sodipodi:nodetypes="ccssscscsssscccccccccccccccc"
             d="m 562.95581,640.30617 c -9e-5,11.11972 -0.73508,19.02403 -2.20499,23.71296 -3.60505,11.52161 -12.05748,17.28238 -25.35732,17.28233 l -26.51231,0 c -10.77994,5e-5 -16.1699,3.85172 -16.16989,11.55504 l 0,21.50243 65.88703,0 c 2.8349,10e-6 4.25239,3.04786 4.25248,9.14355 -9e-5,6.16269 -1.41758,9.24404 -4.25248,9.24404 l -73.34198,0 c -2.72998,0 -4.09497,-2.64594 -4.09497,-7.93782 l 0,-31.75124 c 0,-13.73203 4.98746,-22.90907 14.9624,-27.53115 1.92497,-0.87075 3.95495,-1.50711 6.08995,-1.90909 2.16996,-0.46883 4.47994,-0.70328 6.92996,-0.70335 l 25.82981,0 c 2.90492,7e-5 6.1599,-0.66979 9.76493,-2.00958 4.3749,-2.0095 6.56238,-5.35878 6.56246,-10.04786 l 0,-10.44978 c -8e-5,-5.6267 -3.90254,-9.27742 -11.70742,-10.95217 -2.83504,-0.60277 -46.85607,-0.9042 -54.20596,-0.90431 -1.71503,1.1e-4 -2.88752,-1.00468 -3.51747,-3.01436 -0.38505,-1.3396 -0.57755,-3.78458 -0.5775,-7.33494 -5e-5,-5.22477 1.36494,-7.83721 4.09497,-7.83733 5.91491,1.2e-4 49.55093,0.13409 53.05097,0.40192 3.49991,0.20107 5.98489,0.536 7.45494,1.00478 4.5849,1.47381 8.39987,4.42118 11.44493,8.84212 3.74488,5.42595 5.61737,11.99055 5.61746,19.69381"
             style="font-size:205.78024292px;font-style:normal;font-variant:normal;font-weight:normal;font-stretch:normal;line-height:125%;letter-spacing:0px;word-spacing:0px;fill:#b0dfde;fill-opacity:1;stroke:#000000;stroke-width:8.06938362;stroke-miterlimit:4;stroke-opacity:1;stroke-dasharray:none;font-family:Neuropol;-inkscape-font-specification:Neuropol"
             id="path3023"
             inkscape:connector-curvature="0" />
        </g>
        <g
           transform="matrix(1.3631772,0,0,1.3631772,-106.93853,-391.37577)"
           id="g3025"
           style="stroke:#ffffff;stroke-width:13.20444584;stroke-miterlimit:4;stroke-opacity:1;stroke-dasharray:none">
          <path
             inkscape:connector-curvature="0"
             id="path3027"
             style="font-size:205.78024292px;font-style:normal;font-variant:normal;font-weight:normal;font-stretch:normal;line-height:125%;letter-spacing:0px;word-spacing:0px;fill:#b0dfde;fill-opacity:1;stroke:#ffffff;stroke-width:13.20444584;stroke-miterlimit:4;stroke-opacity:1;stroke-dasharray:none;font-family:Neuropol;-inkscape-font-specification:Neuropol"
             d="m 465.47062,724.8087 c -3e-5,3.95217 -1.57419,6.39715 -4.72249,7.33495 -1.33974,0.40191 -4.55506,0.60287 -9.64595,0.60287 -5.29189,0 -7.93782,-2.64594 -7.93782,-7.93782 l 0,-106.60783 c 0,-5.22477 2.64593,-7.83721 7.93782,-7.83733 5.09089,1.2e-4 8.30621,0.20108 9.64595,0.60287 3.1483,0.93792 4.72246,3.34941 4.72249,7.23446 l 0,106.60783" />
          <path
             inkscape:connector-curvature="0"
             id="path3029"
             style="font-size:205.78024292px;font-style:normal;font-variant:normal;font-weight:normal;font-stretch:normal;line-height:125%;letter-spacing:0px;word-spacing:0px;fill:#b0dfde;fill-opacity:1;stroke:#ffffff;stroke-width:13.20444584;stroke-miterlimit:4;stroke-opacity:1;stroke-dasharray:none;font-family:Neuropol;-inkscape-font-specification:Neuropol"
             d="m 562.95581,640.30617 c -9e-5,11.11972 -0.73508,19.02403 -2.20499,23.71296 -3.60505,11.52161 -12.05748,17.28238 -25.35732,17.28233 l -26.51231,0 c -10.77994,5e-5 -16.1699,3.85172 -16.16989,11.55504 l 0,21.50243 65.88703,0 c 2.8349,10e-6 4.25239,3.04786 4.25248,9.14355 -9e-5,6.16269 -1.41758,9.24404 -4.25248,9.24404 l -73.34198,0 c -2.72998,0 -4.09497,-2.64594 -4.09497,-7.93782 l 0,-31.75124 c 0,-13.73203 4.98746,-22.90907 14.9624,-27.53115 1.92497,-0.87075 3.95495,-1.50711 6.08995,-1.90909 2.16996,-0.46883 4.47994,-0.70328 6.92996,-0.70335 l 25.82981,0 c 2.90492,7e-5 6.1599,-0.66979 9.76493,-2.00958 4.3749,-2.0095 6.56238,-5.35878 6.56246,-10.04786 l 0,-10.44978 c -8e-5,-5.6267 -3.90254,-9.27742 -11.70742,-10.95217 -2.83504,-0.60277 -46.85607,-0.9042 -54.20596,-0.90431 -1.71503,1.1e-4 -2.88752,-1.00468 -3.51747,-3.01436 -0.38505,-1.3396 -0.57755,-3.78458 -0.5775,-7.33494 -5e-5,-5.22477 1.36494,-7.83721 4.09497,-7.83733 5.91491,1.2e-4 49.55093,0.13409 53.05097,0.40192 3.49991,0.20107 5.98489,0.536 7.45494,1.00478 4.5849,1.47381 8.39987,4.42118 11.44493,8.84212 3.74488,5.42595 5.61737,11.99055 5.61746,19.69381"
             sodipodi:nodetypes="ccssscscsssscccccccccccccccc" />
        </g>
        <g
           transform="matrix(1.3631772,0,0,1.3631772,-106.93853,-391.37577)"
           id="g3031">
          <path
             inkscape:connector-curvature="0"
             id="path3033"
             style="font-size:205.78024292px;font-style:normal;font-variant:normal;font-weight:normal;font-stretch:normal;line-height:125%;letter-spacing:0px;word-spacing:0px;fill:#b0dfde;fill-opacity:1;stroke:none;font-family:Neuropol;-inkscape-font-specification:Neuropol"
             d="m 465.47062,724.8087 c -3e-5,3.95217 -1.57419,6.39715 -4.72249,7.33495 -1.33974,0.40191 -4.55506,0.60287 -9.64595,0.60287 -5.29189,0 -7.93782,-2.64594 -7.93782,-7.93782 l 0,-106.60783 c 0,-5.22477 2.64593,-7.83721 7.93782,-7.83733 5.09089,1.2e-4 8.30621,0.20108 9.64595,0.60287 3.1483,0.93792 4.72246,3.34941 4.72249,7.23446 l 0,106.60783" />
          <path
             inkscape:connector-curvature="0"
             id="path3035"
             style="font-size:205.78024292px;font-style:normal;font-variant:normal;font-weight:normal;font-stretch:normal;line-height:125%;letter-spacing:0px;word-spacing:0px;fill:#b0dfde;fill-opacity:1;stroke:none;font-family:Neuropol;-inkscape-font-specification:Neuropol"
             d="m 562.95581,640.30617 c -9e-5,11.11972 -0.73508,19.02403 -2.20499,23.71296 -3.60505,11.52161 -12.05748,17.28238 -25.35732,17.28233 l -26.51231,0 c -10.77994,5e-5 -16.1699,3.85172 -16.16989,11.55504 l 0,21.50243 65.88703,0 c 2.8349,10e-6 4.25239,3.04786 4.25248,9.14355 -9e-5,6.16269 -1.41758,9.24404 -4.25248,9.24404 l -73.34198,0 c -2.72998,0 -4.09497,-2.64594 -4.09497,-7.93782 l 0,-31.75124 c 0,-13.73203 4.98746,-22.90907 14.9624,-27.53115 1.92497,-0.87075 3.95495,-1.50711 6.08995,-1.90909 2.16996,-0.46883 4.47994,-0.70328 6.92996,-0.70335 l 25.82981,0 c 2.90492,7e-5 6.1599,-0.66979 9.76493,-2.00958 4.3749,-2.0095 6.56238,-5.35878 6.56246,-10.04786 l 0,-10.44978 c -8e-5,-5.6267 -3.90254,-9.27742 -11.70742,-10.95217 -2.83504,-0.60277 -46.85607,-0.9042 -54.20596,-0.90431 -1.71503,1.1e-4 -2.88752,-1.00468 -3.51747,-3.01436 -0.38505,-1.3396 -0.57755,-3.78458 -0.5775,-7.33494 -5e-5,-5.22477 1.36494,-7.83721 4.09497,-7.83733 5.91491,1.2e-4 49.55093,0.13409 53.05097,0.40192 3.49991,0.20107 5.98489,0.536 7.45494,1.00478 4.5849,1.47381 8.39987,4.42118 11.44493,8.84212 3.74488,5.42595 5.61737,11.99055 5.61746,19.69381"
             sodipodi:nodetypes="ccssscscsssscccccccccccccccc" />
        </g>
      </g>
      <rect
         ry="9.5396967"
         rx="4.293479"
         y="76.647896"
         x="52.857143"
         height="264.28571"
         width="488.57144"
         id="rect3037"
         style="fill:#ffffff;fill-opacity:0.86792451;stroke:none" />
      <text
         sodipodi:linespacing="125%"
         id="text3807"
         y="335.38657"
         x="305.80508"
         style="font-size:16.91238213px;font-style:normal;font-weight:normal;line-height:125%;letter-spacing:0px;word-spacing:0px;fill:#000000;fill-opacity:1;stroke:none;font-family:Sans"
         xml:space="preserve"><tspan
           id="tspan3812"
           y="335.38657"
           x="305.80508"
           sodipodi:role="line">Sistema Multiplicação12</tspan></text>
    </g>
  </g>
</svg>
